{
    "asset" : {
        "generator" : "Khronos glTF Blender I/O v1.7.33",
        "version" : "2.0"
    },
    "scene" : 0,
    "scenes" : [
        {
            "name" : "Scene",
            "nodes" : [
                0
            ]
        }
    ],
    "nodes" : [
        {
            "mesh" : 0,
            "name" : "Highrise_18",
            "rotation" : [
                0.7071065902709961,
                0,
                0,
                -0.7071069478988647
            ],
            "scale" : [
                -0.02005370706319809,
                -0.02005370706319809,
                -0.02005370706319809
            ],
            "translation" : [
                -21.655170440673828,
                -7.130465984344482,
                0
            ]
        }
    ],
    "materials" : [
        {
            "doubleSided" : true,
            "name" : "default",
            "pbrMetallicRoughness" : {
                "baseColorFactor" : [
                    0.13514268398284912,
                    0.13514268398284912,
                    0.13514268398284912,
                    1
                ],
                "metallicFactor" : 0,
                "roughnessFactor" : 0.15000000596046448
            }
        }
    ],
    "meshes" : [
        {
            "name" : "Highrise_18",
            "primitives" : [
                {
                    "attributes" : {
                        "POSITION" : 0,
                        "NORMAL" : 1,
                        "TEXCOORD_0" : 2
                    },
                    "indices" : 3,
                    "material" : 0
                }
            ]
        }
    ],
    "accessors" : [
        {
            "bufferView" : 0,
            "componentType" : 5126,
            "count" : 1843,
            "max" : [
                -540.673095703125,
                159.1109161376953,
                -0.05933402478694916
            ],
            "min" : [
                -695.8672485351562,
                3.91674542427063,
                -612.116455078125
            ],
            "type" : "VEC3"
        },
        {
            "bufferView" : 1,
            "componentType" : 5126,
            "count" : 1843,
            "type" : "VEC3"
        },
        {
            "bufferView" : 2,
            "componentType" : 5126,
            "count" : 1843,
            "type" : "VEC2"
        },
        {
            "bufferView" : 3,
            "componentType" : 5123,
            "count" : 3072,
            "type" : "SCALAR"
        }
    ],
    "bufferViews" : [
        {
            "buffer" : 0,
            "byteLength" : 22116,
            "byteOffset" : 0
        },
        {
            "buffer" : 0,
            "byteLength" : 22116,
            "byteOffset" : 22116
        },
        {
            "buffer" : 0,
            "byteLength" : 14744,
            "byteOffset" : 44232
        },
        {
            "buffer" : 0,
            "byteLength" : 6144,
            "byteOffset" : 58976
        }
    ],
    "buffers" : [
        {
            "byteLength" : 65120,
            "uri" : "data:application/octet-stream;base64,"
        }
    ]
}
