{
    "asset" : {
        "generator" : "Khronos glTF Blender I/O v1.7.33",
        "version" : "2.0"
    },
    "scene" : 0,
    "scenes" : [
        {
            "name" : "Scene",
            "nodes" : [
                0,
                1
            ]
        }
    ],
    "nodes" : [
        {
            "mesh" : 0,
            "name" : "Plane",
            "scale" : [
                31.519556045532227,
                15.19511604309082,
                15.19511604309082
            ],
            "translation" : [
                -8.713377952575684,
                -7.873546600341797,
                0
            ]
        },
        {
            "mesh" : 1,
            "name" : "Plane.001",
            "scale" : [
                31.519556045532227,
                15.19511604309082,
                15.19511604309082
            ],
            "translation" : [
                -8.713377952575684,
                -1.7179445028305054,
                0
            ]
        }
    ],
    "materials" : [
        {
            "doubleSided" : true,
            "name" : "Material.002",
            "pbrMetallicRoughness" : {
                "metallicFactor" : 0.9636363387107849
            }
        }
    ],
    "meshes" : [
        {
            "name" : "Plane",
            "primitives" : [
                {
                    "attributes" : {
                        "POSITION" : 0,
                        "NORMAL" : 1,
                        "TEXCOORD_0" : 2
                    },
                    "indices" : 3,
                    "material" : 0
                }
            ]
        },
        {
            "name" : "Plane",
            "primitives" : [
                {
                    "attributes" : {
                        "POSITION" : 4,
                        "NORMAL" : 5,
                        "TEXCOORD_0" : 6
                    },
                    "indices" : 7,
                    "material" : 0
                }
            ]
        }
    ],
    "accessors" : [
        {
            "bufferView" : 0,
            "componentType" : 5126,
            "count" : 41616,
            "max" : [
                1,
                0.6799249649047852,
                1
            ],
            "min" : [
                -1,
                0.10880652070045471,
                -1
            ],
            "type" : "VEC3"
        },
        {
            "bufferView" : 1,
            "componentType" : 5126,
            "count" : 41616,
            "type" : "VEC3"
        },
        {
            "bufferView" : 2,
            "componentType" : 5126,
            "count" : 41616,
            "type" : "VEC2"
        },
        {
            "bufferView" : 3,
            "componentType" : 5123,
            "count" : 62424,
            "type" : "SCALAR"
        },
        {
            "bufferView" : 4,
            "componentType" : 5126,
            "count" : 10723,
            "max" : [
                1,
                0,
                1
            ],
            "min" : [
                -1,
                0,
                -1
            ],
            "type" : "VEC3"
        },
        {
            "bufferView" : 5,
            "componentType" : 5126,
            "count" : 10723,
            "type" : "VEC3"
        },
        {
            "bufferView" : 6,
            "componentType" : 5126,
            "count" : 10723,
            "type" : "VEC2"
        },
        {
            "bufferView" : 7,
            "componentType" : 5123,
            "count" : 62424,
            "type" : "SCALAR"
        }
    ],
    "bufferViews" : [
        {
            "buffer" : 0,
            "byteLength" : 499392,
            "byteOffset" : 0
        },
        {
            "buffer" : 0,
            "byteLength" : 499392,
            "byteOffset" : 499392
        },
        {
            "buffer" : 0,
            "byteLength" : 332928,
            "byteOffset" : 998784
        },
        {
            "buffer" : 0,
            "byteLength" : 124848,
            "byteOffset" : 1331712
        },
        {
            "buffer" : 0,
            "byteLength" : 128676,
            "byteOffset" : 1456560
        },
        {
            "buffer" : 0,
            "byteLength" : 128676,
            "byteOffset" : 1585236
        },
        {
            "buffer" : 0,
            "byteLength" : 85784,
            "byteOffset" : 1713912
        },
        {
            "buffer" : 0,
            "byteLength" : 124848,
            "byteOffset" : 1799696
        }
    ],
    "buffers" : [
        {
            "byteLength" : 1924544,
            "uri" : "data:application/octet-stream;base64,"
        }
    ]
}
