{
    "asset" : {
        "generator" : "Khronos glTF Blender I/O v1.7.33",
        "version" : "2.0"
    },
    "scene" : 0,
    "scenes" : [
        {
            "name" : "Scene",
            "nodes" : [
                0
            ]
        }
    ],
    "nodes" : [
        {
            "mesh" : 0,
            "name" : "Top Ring 1",
            "rotation" : [
                0.5738641023635864,
                0.372785747051239,
                -0.32865506410598755,
                0.6509198546409607
            ],
            "translation" : [
                7.228569030761719,
                3.630688190460205,
                12.44610595703125
            ]
        }
    ],
    "materials" : [
        {
            "doubleSided" : true,
            "emissiveFactor" : [
                0.054434949970766144,
                0.026331007872983925,
                0.12709683369244384
            ],
            "name" : "Material.008",
            "pbrMetallicRoughness" : {
                "metallicFactor" : 0.9227272868156433,
                "roughnessFactor" : 0
            }
        }
    ],
    "meshes" : [
        {
            "name" : "Cube.001",
            "primitives" : [
                {
                    "attributes" : {
                        "POSITION" : 0,
                        "NORMAL" : 1,
                        "TEXCOORD_0" : 2
                    },
                    "indices" : 3,
                    "material" : 0
                }
            ]
        }
    ],
    "accessors" : [
        {
            "bufferView" : 0,
            "componentType" : 5126,
            "count" : 6040,
            "max" : [
                25.33736228942871,
                2.2041828632354736,
                25.508716583251953
            ],
            "min" : [
                -6.402175426483154,
                -1.9320780038833618,
                -5.472414016723633
            ],
            "type" : "VEC3"
        },
        {
            "bufferView" : 1,
            "componentType" : 5126,
            "count" : 6040,
            "type" : "VEC3"
        },
        {
            "bufferView" : 2,
            "componentType" : 5126,
            "count" : 6040,
            "type" : "VEC2"
        },
        {
            "bufferView" : 3,
            "componentType" : 5123,
            "count" : 29730,
            "type" : "SCALAR"
        }
    ],
    "bufferViews" : [
        {
            "buffer" : 0,
            "byteLength" : 72480,
            "byteOffset" : 0
        },
        {
            "buffer" : 0,
            "byteLength" : 72480,
            "byteOffset" : 72480
        },
        {
            "buffer" : 0,
            "byteLength" : 48320,
            "byteOffset" : 144960
        },
        {
            "buffer" : 0,
            "byteLength" : 59460,
            "byteOffset" : 193280
        }
    ],
    "buffers" : [
        {
            "byteLength" : 252740,
            "uri" : "data:application/octet-stream;base64,"
        }
    ]
}
