{
    "asset" : {
        "generator" : "Khronos glTF Blender I/O v1.7.33",
        "version" : "2.0"
    },
    "scene" : 0,
    "scenes" : [
        {
            "name" : "Scene",
            "nodes" : [
                0
            ]
        }
    ],
    "nodes" : [
        {
            "mesh" : 0,
            "name" : "Snakefloor",
            "scale" : [
                5.541513442993164,
                5.541513442993164,
                5.541513442993164
            ],
            "translation" : [
                -0.025470584630966187,
                -3.10109281539917,
                0.0033497142139822245
            ]
        }
    ],
    "materials" : [
        {
            "doubleSided" : true,
            "name" : "Material.001",
            "pbrMetallicRoughness" : {
                "baseColorFactor" : [
                    0.3967554569244385,
                    0.2801115810871124,
                    1,
                    1
                ],
                "roughnessFactor" : 0.5
            }
        }
    ],
    "meshes" : [
        {
            "name" : "Plane.003",
            "primitives" : [
                {
                    "attributes" : {
                        "POSITION" : 0,
                        "NORMAL" : 1,
                        "TEXCOORD_0" : 2
                    },
                    "indices" : 3,
                    "material" : 0
                }
            ]
        }
    ],
    "accessors" : [
        {
            "bufferView" : 0,
            "componentType" : 5126,
            "count" : 10404,
            "max" : [
                1.774346113204956,
                0.318746417760849,
                1.774346113204956
            ],
            "min" : [
                -1.774346113204956,
                -0.3837328553199768,
                -1.774346113204956
            ],
            "type" : "VEC3"
        },
        {
            "bufferView" : 1,
            "componentType" : 5126,
            "count" : 10404,
            "type" : "VEC3"
        },
        {
            "bufferView" : 2,
            "componentType" : 5126,
            "count" : 10404,
            "type" : "VEC2"
        },
        {
            "bufferView" : 3,
            "componentType" : 5123,
            "count" : 15606,
            "type" : "SCALAR"
        }
    ],
    "bufferViews" : [
        {
            "buffer" : 0,
            "byteLength" : 124848,
            "byteOffset" : 0
        },
        {
            "buffer" : 0,
            "byteLength" : 124848,
            "byteOffset" : 124848
        },
        {
            "buffer" : 0,
            "byteLength" : 83232,
            "byteOffset" : 249696
        },
        {
            "buffer" : 0,
            "byteLength" : 31212,
            "byteOffset" : 332928
        }
    ],
    "buffers" : [
        {
            "byteLength" : 364140,
            "uri" : "data:application/octet-stream;base64,"
        }
    ]
}
