{
    "asset" : {
        "generator" : "Khronos glTF Blender I/O v1.7.33",
        "version" : "2.0"
    },
    "scene" : 0,
    "scenes" : [
        {
            "name" : "Scene",
            "nodes" : [
                0
            ]
        }
    ],
    "nodes" : [
        {
            "mesh" : 0,
            "name" : "altd.003",
            "rotation" : [
                0.4860098361968994,
                -0.5136092305183411,
                0.5136092305183411,
                0.486009806394577
            ],
            "scale" : [
                11.571208000183105,
                5.569872856140137,
                8.122795104980469
            ],
            "translation" : [
                -13.401591300964355,
                4.405481338500977,
                4.310831546783447
            ]
        }
    ],
    "materials" : [
        {
            "doubleSided" : true,
            "name" : "default",
            "pbrMetallicRoughness" : {
                "baseColorFactor" : [
                    0.13514268398284912,
                    0.13514268398284912,
                    0.13514268398284912,
                    1
                ],
                "metallicFactor" : 0,
                "roughnessFactor" : 0.15000000596046448
            }
        }
    ],
    "meshes" : [
        {
            "name" : "Plane.005",
            "primitives" : [
                {
                    "attributes" : {
                        "POSITION" : 0,
                        "NORMAL" : 1,
                        "TEXCOORD_0" : 2
                    },
                    "indices" : 3,
                    "material" : 0
                }
            ]
        }
    ],
    "accessors" : [
        {
            "bufferView" : 0,
            "componentType" : 5126,
            "count" : 63218,
            "max" : [
                1.7768495082855225,
                0.027414260432124138,
                1.7771447896957397
            ],
            "min" : [
                -1.7916637659072876,
                -0.031218038871884346,
                -1.790439248085022
            ],
            "type" : "VEC3"
        },
        {
            "bufferView" : 1,
            "componentType" : 5126,
            "count" : 63218,
            "type" : "VEC3"
        },
        {
            "bufferView" : 2,
            "componentType" : 5126,
            "count" : 63218,
            "type" : "VEC2"
        },
        {
            "bufferView" : 3,
            "componentType" : 5123,
            "count" : 75000,
            "type" : "SCALAR"
        }
    ],
    "bufferViews" : [
        {
            "buffer" : 0,
            "byteLength" : 758616,
            "byteOffset" : 0
        },
        {
            "buffer" : 0,
            "byteLength" : 758616,
            "byteOffset" : 758616
        },
        {
            "buffer" : 0,
            "byteLength" : 505744,
            "byteOffset" : 1517232
        },
        {
            "buffer" : 0,
            "byteLength" : 150000,
            "byteOffset" : 2022976
        }
    ],
    "buffers" : [
        {
            "byteLength" : 2172976,
            "uri" : "data:application/octet-stream;base64,"
        }
    ]
}
